<?xml version="1.0" standalone="no"?>
<!DOCTYPE svg PUBLIC "-//W3C//DTD SVG 20010904//EN"
 "http://www.w3.org/TR/2001/REC-SVG-20010904/DTD/svg10.dtd">
<svg version="1.0" xmlns="http://www.w3.org/2000/svg"
 width="512.000000pt" height="512.000000pt" viewBox="0 0 512.000000 512.000000"
 preserveAspectRatio="xMidYMid meet">
<metadata>
Created by potrace 1.15, written by Peter Selinger 2001-2017
</metadata>
<g transform="translate(0.000000,512.000000) scale(0.100000,-0.100000)"
fill="#000000" stroke="none">
<path d="M2070 5105 c-85 -19 -231 -92 -303 -152 -127 -106 -225 -268 -261
-433 -5 -25 -7 -25 -108 -25 -112 -1 -180 -14 -273 -53 -274 -116 -448 -361
-462 -652 l-6 -105 -59 -45 c-274 -207 -365 -596 -213 -918 40 -86 69 -126
146 -207 l57 -60 5 -90 c13 -203 114 -400 272 -528 76 -61 219 -131 312 -151
141 -31 318 -17 449 37 l61 25 90 -58 c123 -81 224 -130 292 -142 l59 -11 5
-41 c3 -23 11 -172 18 -332 17 -395 3 -524 -115 -1022 l-33 -142 457 0 458 0
-13 58 c-35 151 -87 401 -105 508 -30 179 -26 285 21 611 l12 82 156 161 156
161 80 -40 c124 -63 225 -84 370 -78 136 5 205 22 308 73 215 106 372 318 412
557 6 35 11 40 68 68 193 92 348 280 403 489 27 101 25 293 -4 393 -26 93 -67
176 -118 242 l-37 49 18 70 c39 159 28 345 -30 487 -54 133 -164 267 -285 345
-95 61 -171 90 -316 119 -14 3 -27 19 -38 47 -38 101 -159 245 -263 314 -131
87 -262 126 -423 126 -123 0 -211 -18 -315 -66 l-73 -34 -23 42 c-37 66 -175
196 -254 239 -129 71 -202 90 -355 94 -91 2 -156 -2 -200 -12z m759 -3047 c19
-90 60 -183 116 -268 l54 -80 -62 -50 c-68 -54 -191 -120 -225 -120 -79 0 -84
122 -15 413 l25 108 46 24 c26 13 48 24 49 25 1 0 6 -24 12 -52z m-543 -24
c38 -9 111 -16 162 -17 51 0 92 -5 92 -10 0 -5 -10 -51 -21 -101 -26 -108 -52
-169 -86 -196 -24 -19 -27 -19 -54 -3 -51 30 -128 141 -209 302 l-40 80 44
-19 c23 -11 74 -27 112 -36z m-140 -262 c-11 -11 -92 13 -163 48 -116 58 -112
52 -72 102 20 24 50 65 68 92 l33 48 69 -143 c38 -78 67 -144 65 -147z"/>
</g>
</svg>
