<?xml version="1.0" standalone="no"?>
<!DOCTYPE svg PUBLIC "-//W3C//DTD SVG 20010904//EN"
 "http://www.w3.org/TR/2001/REC-SVG-20010904/DTD/svg10.dtd">
<svg version="1.0" xmlns="http://www.w3.org/2000/svg"
 width="512.000000pt" height="512.000000pt" viewBox="0 0 512.000000 512.000000"
 preserveAspectRatio="xMidYMid meet">
<metadata>
Created by potrace 1.15, written by Peter Selinger 2001-2017
</metadata>
<g transform="translate(0.000000,512.000000) scale(0.100000,-0.100000)"
fill="#ffffff" stroke="none">
<path d="M2226 5104 c-542 -70 -1052 -317 -1450 -704 -399 -388 -647 -858
-748 -1417 -20 -115 -23 -159 -23 -423 0 -264 3 -308 23 -423 81 -448 262
-848 539 -1192 96 -119 294 -314 413 -406 369 -287 795 -464 1258 -523 160
-21 482 -21 639 -1 420 53 808 202 1148 440 600 420 991 1067 1080 1785 20
163 20 477 0 640 -72 581 -334 1105 -761 1520 -403 391 -912 637 -1464 705
-155 19 -502 18 -654 -1z m679 -219 c757 -120 1403 -585 1745 -1256 179 -352
255 -671 255 -1074 -1 -268 -25 -439 -99 -682 -104 -344 -315 -697 -570 -955
l-76 -77 -52 35 c-77 52 -248 133 -448 212 -321 128 -419 181 -509 277 -80 84
-84 99 -89 332 l-5 202 44 49 c72 80 166 290 184 414 6 39 11 46 41 57 74 27
131 142 141 287 6 91 -5 138 -44 184 l-25 30 31 123 c45 178 63 313 63 477 0
177 -18 272 -73 387 -68 142 -180 232 -330 267 -50 12 -67 22 -94 53 -147 173
-635 188 -955 31 -122 -61 -241 -179 -299 -299 -114 -237 -126 -519 -39 -936
l21 -102 -26 -30 c-39 -47 -50 -94 -44 -185 10 -145 67 -260 142 -287 20 -8
35 -20 35 -29 0 -88 108 -340 187 -437 l47 -58 -1 -197 c-2 -218 -7 -239 -69
-315 -76 -93 -203 -163 -529 -293 -196 -79 -386 -169 -458 -219 l-46 -31 -77
77 c-345 349 -566 792 -650 1308 -25 152 -26 514 -1 670 44 273 115 495 237
734 348 683 1036 1168 1785 1260 50 6 104 13 120 15 67 9 435 -4 530 -19z"/>
</g>
</svg>
